<?xml version="1.0" standalone="no"?><!DOCTYPE svg PUBLIC "-//W3C//DTD SVG 1.1//EN" "http://www.w3.org/Graphics/SVG/1.1/DTD/svg11.dtd"><svg t="1779854253016" class="icon" viewBox="0 0 1093 1024" version="1.1" xmlns="http://www.w3.org/2000/svg" p-id="14470" xmlns:xlink="http://www.w3.org/1999/xlink" width="213.4765625" height="200"><path d="M409.6 0h68.266165v68.266165H409.6zM273.058635 68.264659h68.266165v68.266165h-68.266165zM136.541365 204.8h68.266164v68.266165H136.541365z" fill="#231815" p-id="14471"></path><path d="M204.8 204.8h68.266165v68.266165H204.8z" fill="#61AD18" p-id="14472"></path><path d="M0 409.6h68.266165v68.266165H0z" fill="#231815" p-id="14473"></path><path d="M68.270682 409.6h68.266165v68.266165H68.270682zM136.541365 409.6h68.266164v68.266165H136.541365z" fill="#FFFFFF" p-id="14474"></path><path d="M204.8 409.6h68.266165v68.266165H204.8z" fill="#FFFFFF" p-id="14475"></path><path d="M0 546.132329h68.266165v68.266165H0z" fill="#231815" p-id="14476"></path><path d="M68.270682 546.132329h68.266165v68.266165H68.270682z" fill="#FFFFFF" p-id="14477"></path><path d="M136.541365 546.132329h68.266164v68.266165H136.541365z" fill="#61AD18" p-id="14478"></path><path d="M204.8 546.132329h68.266165v68.266165H204.8z" fill="#61AD18" p-id="14479"></path><path d="M1024 546.132329h68.266165v68.266165H1024z" fill="#231815" p-id="14480"></path><path d="M955.729318 546.132329h68.266164v68.266165h-68.266164z" fill="#61AD18" p-id="14481"></path><path d="M887.458635 546.132329h68.266165v68.266165h-68.266165z" fill="#FFFFFF" p-id="14482"></path><path d="M819.2 546.132329h68.266165v68.266165H819.2z" fill="#FFFFFF" p-id="14483"></path><path d="M955.729318 409.6h68.266164v68.266165h-68.266164z" fill="#231815" p-id="14484"></path><path d="M887.458635 409.6h68.266165v68.266165h-68.266165z" fill="#FFFFFF" p-id="14485"></path><path d="M819.2 409.6h68.266165v68.266165H819.2z" fill="#FFFFFF" p-id="14486"></path><path d="M887.458635 273.067671h68.266165v68.266164h-68.266165z" fill="#231815" p-id="14487"></path><path d="M819.2 273.067671h68.266165v68.266164H819.2zM273.058635 136.532329h68.266165v68.266165h-68.266165zM273.058635 204.8h68.266165v68.266165h-68.266165zM273.058635 273.067671h68.266165v68.266164h-68.266165z" fill="#61AD18" p-id="14488"></path><path d="M273.058635 341.332329h68.266165v68.266165h-68.266165zM273.058635 409.6h68.266165v68.266165h-68.266165z" fill="#61AD18" p-id="14489"></path><path d="M273.058635 477.864659h68.266165v68.266165h-68.266165zM273.058635 546.132329h68.266165v68.266165h-68.266165z" fill="#61AD18" p-id="14490"></path><path d="M273.058635 614.4h68.266165v68.266165h-68.266165zM273.058635 682.667671h68.266165v68.266164h-68.266165z" fill="#231815" p-id="14491"></path><path d="M273.058635 750.932329h68.266165v68.266165h-68.266165z" fill="#FFFFFF" p-id="14492"></path><path d="M273.058635 819.2h68.266165v68.266165h-68.266165z" fill="#FFDFD2" p-id="14493"></path><path d="M273.058635 887.464659h68.266165v68.266165h-68.266165zM136.541365 273.067671h68.266164v68.266164H136.541365z" fill="#231815" p-id="14494"></path><path d="M204.8 273.067671h68.266165v68.266164H204.8z" fill="#61AD18" p-id="14495"></path><path d="M0 477.864659h68.266165v68.266165H0z" fill="#231815" p-id="14496"></path><path d="M68.270682 477.864659h68.266165v68.266165H68.270682zM136.541365 477.864659h68.266164v68.266165H136.541365z" fill="#FFFFFF" p-id="14497"></path><path d="M204.8 477.864659h68.266165v68.266165H204.8z" fill="#61AD18" p-id="14498"></path><path d="M1024 477.864659h68.266165v68.266165H1024z" fill="#231815" p-id="14499"></path><path d="M955.729318 477.864659h68.266164v68.266165h-68.266164z" fill="#61AD18" p-id="14500"></path><path d="M887.458635 477.864659h68.266165v68.266165h-68.266165z" fill="#FFFFFF" p-id="14501"></path><path d="M819.2 477.864659h68.266165v68.266165H819.2z" fill="#FFFFFF" p-id="14502"></path><path d="M955.729318 341.332329h68.266164v68.266165h-68.266164z" fill="#231815" p-id="14503"></path><path d="M887.458635 341.332329h68.266165v68.266165h-68.266165z" fill="#61AD18" p-id="14504"></path><path d="M819.2 341.332329h68.266165v68.266165H819.2z" fill="#FFFFFF" p-id="14505"></path><path d="M887.458635 204.8h68.266165v68.266165h-68.266165z" fill="#231815" p-id="14506"></path><path d="M819.2 204.8h68.266165v68.266165H819.2z" fill="#61AD18" p-id="14507"></path><path d="M0 614.4h68.266165v68.266165H0z" fill="#231815" p-id="14508"></path><path d="M68.270682 614.4h68.266165v68.266165H68.270682zM136.541365 614.4h68.266164v68.266165H136.541365z" fill="#61AD18" p-id="14509"></path><path d="M204.8 614.4h68.266165v68.266165H204.8z" fill="#61AD18" p-id="14510"></path><path d="M1024 614.4h68.266165v68.266165H1024z" fill="#231815" p-id="14511"></path><path d="M955.729318 614.4h68.266164v68.266165h-68.266164zM887.458635 614.4h68.266165v68.266165h-68.266165z" fill="#61AD18" p-id="14512"></path><path d="M819.2 614.4h68.266165v68.266165H819.2z" fill="#FFFFFF" p-id="14513"></path><path d="M204.8 819.2h68.266165v68.266165H204.8zM819.2 819.2h68.266165v68.266165H819.2zM0 682.667671h68.266165v68.266164H0z" fill="#231815" p-id="14514"></path><path d="M68.270682 682.667671h68.266165v68.266164H68.270682z" fill="#61AD18" p-id="14515"></path><path d="M136.541365 682.667671h68.266164v68.266164H136.541365z" fill="#231815" p-id="14516"></path><path d="M204.8 682.667671h68.266165v68.266164H204.8zM1024 682.667671h68.266165v68.266164H1024z" fill="#231815" p-id="14517"></path><path d="M955.729318 682.667671h68.266164v68.266164h-68.266164z" fill="#61AD18" p-id="14518"></path><path d="M887.458635 682.667671h68.266165v68.266164h-68.266165z" fill="#231815" p-id="14519"></path><path d="M819.2 682.667671h68.266165v68.266164H819.2zM204.8 887.464659h68.266165v68.266165H204.8zM819.2 887.464659h68.266165v68.266165H819.2zM273.058635 955.735341h68.266165v68.266165h-68.266165zM477.870682 955.735341h68.266165v68.266165h-68.266165zM68.270682 750.932329h68.266165v68.266165H68.270682z" fill="#231815" p-id="14520"></path><path d="M887.458635 750.932329h68.266165v68.266165h-68.266165z" fill="#231815" p-id="14521"></path><path d="M819.2 750.932329h68.266165v68.266165H819.2zM341.329318 955.735341h68.266164v68.266165h-68.266164zM546.129318 955.735341h68.266164v68.266165h-68.266164zM682.670682 955.735341h68.266165v68.266165h-68.266165zM136.541365 750.932329h68.266164v68.266165H136.541365z" fill="#231815" p-id="14522"></path><path d="M204.8 750.932329h68.266165v68.266165H204.8z" fill="#FFFFFF" p-id="14523"></path><path d="M955.729318 750.932329h68.266164v68.266165h-68.266164zM409.6 955.735341h68.266165v68.266165H409.6zM614.4 955.735341h68.266165v68.266165H614.4zM750.941365 955.735341h68.266164v68.266165h-68.266164zM68.270682 341.332329h68.266165v68.266165H68.270682z" fill="#231815" p-id="14524"></path><path d="M136.541365 341.332329h68.266164v68.266165H136.541365z" fill="#FFFFFF" p-id="14525"></path><path d="M204.8 341.332329h68.266165v68.266165H204.8z" fill="#FFFFFF" p-id="14526"></path><path d="M204.8 136.532329h68.266165v68.266165H204.8z" fill="#231815" p-id="14527"></path><path d="M546.129318 68.264659h68.266164v68.266165h-68.266164zM546.129318 136.532329h68.266164v68.266165h-68.266164z" fill="#61AD18" p-id="14528"></path><path d="M546.129318 204.8h68.266164v68.266165h-68.266164zM546.129318 273.067671h68.266164v68.266164h-68.266164z" fill="#FFFFFF" p-id="14529"></path><path d="M546.129318 341.332329h68.266164v68.266165h-68.266164zM546.129318 409.6h68.266164v68.266165h-68.266164z" fill="#61AD18" p-id="14530"></path><path d="M546.129318 477.864659h68.266164v68.266165h-68.266164zM546.129318 546.132329h68.266164v68.266165h-68.266164z" fill="#61AD18" p-id="14531"></path><path d="M546.129318 614.4h68.266164v68.266165h-68.266164z" fill="#231815" p-id="14532"></path><path d="M546.129318 682.667671h68.266164v68.266164h-68.266164z" fill="#FFDFD2" p-id="14533"></path><path d="M546.129318 750.932329h68.266164v68.266165h-68.266164zM546.129318 819.2h68.266164v68.266165h-68.266164z" fill="#FFFFFF" p-id="14534"></path><path d="M546.129318 887.464659h68.266164v68.266165h-68.266164z" fill="#FFDFD2" p-id="14535"></path><path d="M477.870682 0h68.266165v68.266165h-68.266165zM341.329318 68.264659h68.266164v68.266165h-68.266164z" fill="#231815" p-id="14536"></path><path d="M341.329318 136.532329h68.266164v68.266165h-68.266164z" fill="#61AD18" p-id="14537"></path><path d="M341.329318 204.8h68.266164v68.266165h-68.266164zM341.329318 273.067671h68.266164v68.266164h-68.266164z" fill="#FFFFFF" p-id="14538"></path><path d="M341.329318 341.332329h68.266164v68.266165h-68.266164zM341.329318 409.6h68.266164v68.266165h-68.266164z" fill="#61AD18" p-id="14539"></path><path d="M341.329318 477.864659h68.266164v68.266165h-68.266164zM341.329318 546.132329h68.266164v68.266165h-68.266164z" fill="#61AD18" p-id="14540"></path><path d="M341.329318 614.4h68.266164v68.266165h-68.266164z" fill="#231815" p-id="14541"></path><path d="M341.329318 682.667671h68.266164v68.266164h-68.266164z" fill="#FFDFD2" p-id="14542"></path><path d="M341.329318 750.932329h68.266164v68.266165h-68.266164zM341.329318 819.2h68.266164v68.266165h-68.266164z" fill="#FFFFFF" p-id="14543"></path><path d="M341.329318 887.464659h68.266164v68.266165h-68.266164z" fill="#FFDFD2" p-id="14544"></path><path d="M614.4 68.264659h68.266165v68.266165H614.4zM614.4 136.532329h68.266165v68.266165H614.4zM614.4 204.8h68.266165v68.266165H614.4zM614.4 273.067671h68.266165v68.266164H614.4z" fill="#61AD18" p-id="14545"></path><path d="M614.4 341.332329h68.266165v68.266165H614.4z" fill="#61AD18" p-id="14546"></path><path d="M614.4 409.6h68.266165v68.266165H614.4z" fill="#FFFFFF" p-id="14547"></path><path d="M614.4 477.864659h68.266165v68.266165H614.4zM614.4 546.132329h68.266165v68.266165H614.4z" fill="#FFFFFF" p-id="14548"></path><path d="M614.4 614.4h68.266165v68.266165H614.4zM614.4 682.667671h68.266165v68.266164H614.4z" fill="#231815" p-id="14549"></path><path d="M614.4 750.932329h68.266165v68.266165H614.4z" fill="#231815" p-id="14550"></path><path d="M614.4 819.2h68.266165v68.266165H614.4z" fill="#FFFFFF" p-id="14551"></path><path d="M614.4 887.464659h68.266165v68.266165H614.4z" fill="#FFDFD2" p-id="14552"></path><path d="M546.129318 0h68.266164v68.266165h-68.266164z" fill="#231815" p-id="14553"></path><path d="M409.6 68.264659h68.266165v68.266165H409.6z" fill="#61AD18" p-id="14554"></path><path d="M409.6 136.532329h68.266165v68.266165H409.6zM409.6 204.8h68.266165v68.266165H409.6zM409.6 273.067671h68.266165v68.266164H409.6z" fill="#FFFFFF" p-id="14555"></path><path d="M409.6 341.332329h68.266165v68.266165H409.6z" fill="#FFFFFF" p-id="14556"></path><path d="M409.6 409.6h68.266165v68.266165H409.6z" fill="#61AD18" p-id="14557"></path><path d="M409.6 477.864659h68.266165v68.266165H409.6zM409.6 546.132329h68.266165v68.266165H409.6z" fill="#61AD18" p-id="14558"></path><path d="M409.6 614.4h68.266165v68.266165H409.6zM409.6 682.667671h68.266165v68.266164H409.6z" fill="#231815" p-id="14559"></path><path d="M409.6 750.932329h68.266165v68.266165H409.6z" fill="#231815" p-id="14560"></path><path d="M409.6 819.2h68.266165v68.266165H409.6z" fill="#FFFFFF" p-id="14561"></path><path d="M409.6 887.464659h68.266165v68.266165H409.6z" fill="#FFDFD2" p-id="14562"></path><path d="M682.670682 68.264659h68.266165v68.266165h-68.266165z" fill="#231815" p-id="14563"></path><path d="M682.670682 136.532329h68.266165v68.266165h-68.266165z" fill="#FFFFFF" p-id="14564"></path><path d="M682.670682 204.8h68.266165v68.266165h-68.266165zM682.670682 273.067671h68.266165v68.266164h-68.266165z" fill="#61AD18" p-id="14565"></path><path d="M682.670682 341.332329h68.266165v68.266165h-68.266165zM682.670682 409.6h68.266165v68.266165h-68.266165z" fill="#FFFFFF" p-id="14566"></path><path d="M682.670682 477.864659h68.266165v68.266165h-68.266165zM682.670682 546.132329h68.266165v68.266165h-68.266165z" fill="#FFFFFF" p-id="14567"></path><path d="M682.670682 614.4h68.266165v68.266165h-68.266165z" fill="#231815" p-id="14568"></path><path d="M682.670682 682.667671h68.266165v68.266164h-68.266165z" fill="#FFDFD2" p-id="14569"></path><path d="M682.670682 750.932329h68.266165v68.266165h-68.266165zM682.670682 819.2h68.266165v68.266165h-68.266165z" fill="#FFFFFF" p-id="14570"></path><path d="M682.670682 887.464659h68.266165v68.266165h-68.266165z" fill="#FFDFD2" p-id="14571"></path><path d="M614.4 0h68.266165v68.266165H614.4z" fill="#231815" p-id="14572"></path><path d="M477.870682 68.264659h68.266165v68.266165h-68.266165z" fill="#61AD18" p-id="14573"></path><path d="M477.870682 136.532329h68.266165v68.266165h-68.266165zM477.870682 204.8h68.266165v68.266165h-68.266165zM477.870682 273.067671h68.266165v68.266164h-68.266165z" fill="#FFFFFF" p-id="14574"></path><path d="M477.870682 341.332329h68.266165v68.266165h-68.266165z" fill="#FFFFFF" p-id="14575"></path><path d="M477.870682 409.6h68.266165v68.266165h-68.266165z" fill="#61AD18" p-id="14576"></path><path d="M477.870682 477.864659h68.266165v68.266165h-68.266165zM477.870682 546.132329h68.266165v68.266165h-68.266165z" fill="#61AD18" p-id="14577"></path><path d="M477.870682 614.4h68.266165v68.266165h-68.266165z" fill="#231815" p-id="14578"></path><path d="M477.870682 682.667671h68.266165v68.266164h-68.266165z" fill="#FFDFD2" p-id="14579"></path><path d="M477.870682 750.932329h68.266165v68.266165h-68.266165zM477.870682 819.2h68.266165v68.266165h-68.266165z" fill="#FFFFFF" p-id="14580"></path><path d="M477.870682 887.464659h68.266165v68.266165h-68.266165z" fill="#FFDFD2" p-id="14581"></path><path d="M750.941365 68.264659h68.266164v68.266165h-68.266164z" fill="#231815" p-id="14582"></path><path d="M750.941365 136.532329h68.266164v68.266165h-68.266164z" fill="#FFFFFF" p-id="14583"></path><path d="M750.941365 204.8h68.266164v68.266165h-68.266164zM750.941365 273.067671h68.266164v68.266164h-68.266164z" fill="#61AD18" p-id="14584"></path><path d="M750.941365 341.332329h68.266164v68.266165h-68.266164zM750.941365 409.6h68.266164v68.266165h-68.266164z" fill="#FFFFFF" p-id="14585"></path><path d="M750.941365 477.864659h68.266164v68.266165h-68.266164zM750.941365 546.132329h68.266164v68.266165h-68.266164z" fill="#FFFFFF" p-id="14586"></path><path d="M750.941365 614.4h68.266164v68.266165h-68.266164zM750.941365 682.667671h68.266164v68.266164h-68.266164z" fill="#231815" p-id="14587"></path><path d="M750.941365 750.932329h68.266164v68.266165h-68.266164z" fill="#FFFFFF" p-id="14588"></path><path d="M750.941365 819.2h68.266164v68.266165h-68.266164z" fill="#FFDFD2" p-id="14589"></path><path d="M750.941365 887.464659h68.266164v68.266165h-68.266164zM819.2 136.532329h68.266165v68.266165H819.2z" fill="#231815" p-id="14590"></path></svg>